<?xml version="1.0" encoding="utf-8"?>
<!-- Generator: Adobe Illustrator 26.0.0, SVG Export Plug-In . SVG Version: 6.00 Build 0)  -->
<svg version="1.1" baseProfile="tiny" id="Layer_1" xmlns="http://www.w3.org/2000/svg" xmlns:xlink="http://www.w3.org/1999/xlink"
	 x="0px" y="0px" viewBox="0 0 83.9 65.1" overflow="visible" xml:space="preserve">
<g id="YZZ2Ru.tif_00000154414888830230661570000004698608643445905072_">
	<g>
		<path fill="none" stroke="#45E6DD" stroke-width="3" stroke-linecap="round" stroke-linejoin="round" stroke-miterlimit="10" d="
			M7.5,56.6c-0.7-0.9-1.4-1.8-2.1-2.7c-0.1-0.3-0.2-0.5-0.4-0.8c-1.5-2.7-2.4-5.7-2.5-8.8c-0.1-6.7,2.5-12,7.8-16.1
			c10.5-8,20.9-16,31.4-24.1c0.3-0.2,0.6-0.5,0.9-0.7c1.1-0.8,2.4-0.9,3.6-0.4c2.8,1.2,3.3,4.8,0.8,6.8c-2,1.6-4.1,3.2-6.2,4.8
			C32.1,21.5,23.2,28.2,14.4,35C9,39.3,9,47.9,14.4,52.3c4.3,3.5,9.9,3.6,14.3,0.1c14.4-11,28.7-22,43.1-33c0.3-0.2,0.5-0.4,0.8-0.6
			c2.1-2,2.1-5.4,0-7.4c-2-1.9-4.7-1.9-7-0.1C55.7,18.8,45.8,26.4,35.9,34c-0.4,0.3-0.8,0.6-1.3,0.8c-2.1,1.1-4.6,0.1-5.4-2.1
			c-0.6-1.7-0.1-3.4,1.6-4.7C40.9,20.3,50.9,12.6,61,4.9c0.6-0.5,1.3-0.9,1.9-1.3C70-0.3,79,3.4,81.4,11.1
			c1.7,5.4-0.1,10.9-4.8,14.5c-14.3,11-28.7,22-43,33c-0.8,0.6-1.7,1.3-2.6,1.7c-6.5,3.4-12.9,3.3-19.3-0.4
			C10.2,59,8.9,57.7,7.5,56.6z"/>
	</g>
</g>
</svg>
