<?xml version="1.0" encoding="utf-8"?>
<!-- Generator: Adobe Illustrator 26.0.0, SVG Export Plug-In . SVG Version: 6.00 Build 0)  -->
<svg version="1.1" baseProfile="tiny" id="Layer_1" xmlns="http://www.w3.org/2000/svg" xmlns:xlink="http://www.w3.org/1999/xlink"
	 x="0px" y="0px" viewBox="0 0 91 52.2" overflow="visible" xml:space="preserve">
<g>
	<path fill="none" stroke="#072F35" stroke-width="3" stroke-linecap="round" stroke-linejoin="round" stroke-miterlimit="10" d="
		M10.8,50.3v-5.9V50.3H2.2v-5.9c0-5.9,4.6-10.1,10.7-11.6l3.6-0.9c0,4,3.2,7.2,7.2,7.2s7.2-3.2,7.2-7.2l3.6,0.9
		c6.2,1.5,10.7,5.7,10.7,11.6v5.9h-8.6v-5.9v5.9H10.8z"/>
	<path fill="none" stroke="#072F35" stroke-width="3" stroke-linecap="round" stroke-linejoin="round" stroke-miterlimit="10" d="
		M29,10.4H18.3c-3,0-5.4,2.4-5.4,5.4c0,6.9,5.5,12.5,10.7,12.5s10.7-5.6,10.7-12.5C34.4,12.8,32,10.4,29,10.4z"/>
	<path fill="none" stroke="#072F35" stroke-width="3" stroke-linecap="round" stroke-linejoin="round" stroke-miterlimit="10" d="
		M28.1,28.3V27c-1.4,0.8-3,1.3-4.5,1.3c-1.5,0-3.1-0.5-4.5-1.3v1.3c0,2-1.2,3.6-2.7,3.6c0,4,3.2,7.2,7.2,7.2s7.2-3.2,7.2-7.2
		C29.3,31.9,28.1,30.3,28.1,28.3z"/>
	<path fill="none" stroke="#072F35" stroke-width="3" stroke-linecap="round" stroke-linejoin="round" stroke-miterlimit="10" d="
		M34.4,15.8L34.4,15.8c0-3-2.4-5.4-5.4-5.4H18.3c-3,0-5.4,2.4-5.4,5.4l0,0c0,0-2.3-12.3,7.3-12.9c2.7-0.2,6.2,2.3,9.2,2.3
		c3,0,5-3.2,5-3.2V15.8z"/>
</g>
<g>
	<path fill="none" stroke="#072F35" stroke-width="3" stroke-linecap="round" stroke-linejoin="round" stroke-miterlimit="10" d="
		M54.5,50.3v-5.9V50.3h-8.6v-5.9c0-5.9,4.6-10.1,10.7-11.6l3.6-0.9c0,4,3.2,7.2,7.2,7.2c4,0,7.2-3.2,7.2-7.2l3.6,0.9
		c6.2,1.5,10.7,5.7,10.7,11.6v5.9h-8.6v-5.9v5.9H54.5z"/>
	<path fill="none" stroke="#072F35" stroke-width="3" stroke-linecap="round" stroke-linejoin="round" stroke-miterlimit="10" d="
		M72.8,10.4H62c-3,0-5.4,2.4-5.4,5.4c0,6.9,5.5,12.5,10.7,12.5c5.3,0,10.7-5.6,10.7-12.5C78.1,12.8,75.7,10.4,72.8,10.4z"/>
	<path fill="none" stroke="#072F35" stroke-width="3" stroke-linecap="round" stroke-linejoin="round" stroke-miterlimit="10" d="
		M71.9,28.3V27c-1.4,0.8-3,1.3-4.5,1.3s-3.1-0.5-4.5-1.3v1.3c0,2-1.2,3.6-2.7,3.6c0,4,3.2,7.2,7.2,7.2c4,0,7.2-3.2,7.2-7.2
		C73.1,31.9,71.9,30.3,71.9,28.3z"/>
	<path fill="none" stroke="#072F35" stroke-width="3" stroke-linecap="round" stroke-linejoin="round" stroke-miterlimit="10" d="
		M78.1,15.8L78.1,15.8c0-3-2.4-5.4-5.4-5.4H62c-3,0-5.4,2.4-5.4,5.4l0,0c0,0-2.3-12.3,7.3-12.9c2.7-0.2,6.2,2.3,9.2,2.3
		c3,0,5-3.2,5-3.2V15.8z"/>
</g>
</svg>
