<?xml version="1.0" encoding="utf-8"?>
<!-- Generator: Adobe Illustrator 26.0.0, SVG Export Plug-In . SVG Version: 6.00 Build 0)  -->
<svg version="1.1" baseProfile="tiny" id="Layer_1" xmlns="http://www.w3.org/2000/svg" xmlns:xlink="http://www.w3.org/1999/xlink"
	 x="0px" y="0px" viewBox="0 0 134.3 103.9" overflow="visible" xml:space="preserve">
<g>
	<path fill="none" stroke="#072F35" stroke-width="3" stroke-linecap="round" stroke-linejoin="round" stroke-miterlimit="10" d="
		M10.6,101.8v-5.9V101.8H2v-5.9C2,90,6.6,85.8,12.7,84.3l3.6-0.9c0,4,3.2,7.2,7.2,7.2c4,0,7.2-3.2,7.2-7.2l3.6,0.9
		c6.2,1.5,10.7,5.7,10.7,11.6v5.9h-8.6v-5.9v5.9H10.6z"/>
	<path fill="none" stroke="#072F35" stroke-width="3" stroke-linecap="round" stroke-linejoin="round" stroke-miterlimit="10" d="
		M28.8,61.9H18.1c-3,0-5.4,2.4-5.4,5.4c0,6.9,5.5,12.5,10.7,12.5c5.3,0,10.7-5.6,10.7-12.5C34.2,64.4,31.8,61.9,28.8,61.9z"/>
	<path fill="none" stroke="#072F35" stroke-width="3" stroke-linecap="round" stroke-linejoin="round" stroke-miterlimit="10" d="
		M27.9,79.8v-1.3c-1.4,0.8-3,1.3-4.5,1.3s-3.1-0.5-4.5-1.3v1.3c0,2-1.2,3.6-2.7,3.6c0,4,3.2,7.2,7.2,7.2c4,0,7.2-3.2,7.2-7.2
		C29.1,83.4,27.9,81.8,27.9,79.8z"/>
	<path fill="none" stroke="#072F35" stroke-width="3" stroke-linecap="round" stroke-linejoin="round" stroke-miterlimit="10" d="
		M34.2,67.3L34.2,67.3c0-3-2.4-5.4-5.4-5.4H18.1c-3,0-5.4,2.4-5.4,5.4l0,0c0,0-2.3-12.3,7.3-12.9c2.7-0.2,6.2,2.3,9.2,2.3
		c3,0,5-3.2,5-3.2V67.3z"/>
</g>
<g>
	<path fill="none" stroke="#072F35" stroke-width="3" stroke-linecap="round" stroke-linejoin="round" stroke-miterlimit="10" d="
		M54.3,101.8v-5.9V101.8h-8.6v-5.9c0-5.9,4.6-10.1,10.7-11.6l3.6-0.9c0,4,3.2,7.2,7.2,7.2c4,0,7.2-3.2,7.2-7.2l3.6,0.9
		c6.2,1.5,10.7,5.7,10.7,11.6v5.9h-8.6v-5.9v5.9H54.3z"/>
	<path fill="none" stroke="#072F35" stroke-width="3" stroke-linecap="round" stroke-linejoin="round" stroke-miterlimit="10" d="
		M72.6,61.9H61.8c-3,0-5.4,2.4-5.4,5.4c0,6.9,5.5,12.5,10.7,12.5c5.3,0,10.7-5.6,10.7-12.5C77.9,64.4,75.5,61.9,72.6,61.9z"/>
	<path fill="none" stroke="#072F35" stroke-width="3" stroke-linecap="round" stroke-linejoin="round" stroke-miterlimit="10" d="
		M71.7,79.8v-1.3c-1.4,0.8-3,1.3-4.5,1.3s-3.1-0.5-4.5-1.3v1.3c0,2-1.2,3.6-2.7,3.6c0,4,3.2,7.2,7.2,7.2c4,0,7.2-3.2,7.2-7.2
		C72.9,83.4,71.7,81.8,71.7,79.8z"/>
	<path fill="none" stroke="#072F35" stroke-width="3" stroke-linecap="round" stroke-linejoin="round" stroke-miterlimit="10" d="
		M77.9,67.3L77.9,67.3c0-3-2.4-5.4-5.4-5.4H61.8c-3,0-5.4,2.4-5.4,5.4l0,0c0,0-2.3-12.3,7.3-12.9c2.7-0.2,6.2,2.3,9.2,2.3
		c3,0,5-3.2,5-3.2V67.3z"/>
</g>
<g>
	<path fill="none" stroke="#072F35" stroke-width="3" stroke-linecap="round" stroke-linejoin="round" stroke-miterlimit="10" d="
		M98.1,101.8v-5.9V101.8h-8.6v-5.9c0-5.9,4.6-10.1,10.7-11.6l3.6-0.9c0,4,3.2,7.2,7.2,7.2s7.2-3.2,7.2-7.2l3.6,0.9
		c6.2,1.5,10.7,5.7,10.7,11.6v5.9h-8.6v-5.9v5.9H98.1z"/>
	<path fill="none" stroke="#072F35" stroke-width="3" stroke-linecap="round" stroke-linejoin="round" stroke-miterlimit="10" d="
		M116.3,61.9h-10.7c-3,0-5.4,2.4-5.4,5.4c0,6.9,5.5,12.5,10.7,12.5s10.7-5.6,10.7-12.5C121.7,64.4,119.3,61.9,116.3,61.9z"/>
	<path fill="none" stroke="#072F35" stroke-width="3" stroke-linecap="round" stroke-linejoin="round" stroke-miterlimit="10" d="
		M115.4,79.8v-1.3c-1.4,0.8-3,1.3-4.5,1.3s-3.1-0.5-4.5-1.3v1.3c0,2-1.2,3.6-2.7,3.6c0,4,3.2,7.2,7.2,7.2s7.2-3.2,7.2-7.2
		C116.6,83.4,115.4,81.8,115.4,79.8z"/>
	<path fill="none" stroke="#072F35" stroke-width="3" stroke-linecap="round" stroke-linejoin="round" stroke-miterlimit="10" d="
		M121.7,67.3L121.7,67.3c0-3-2.4-5.4-5.4-5.4h-10.7c-3,0-5.4,2.4-5.4,5.4l0,0c0,0-2.3-12.3,7.3-12.9c2.7-0.2,6.2,2.3,9.2,2.3
		c3,0,5-3.2,5-3.2V67.3z"/>
</g>
<g>
	<path fill="none" stroke="#072F35" stroke-width="3" stroke-linecap="round" stroke-linejoin="round" stroke-miterlimit="10" d="
		M31.6,50.7v-5.9V50.7H23v-5.9c0-5.9,4.6-10.1,10.7-11.6l3.6-0.9c0,4,3.2,7.2,7.2,7.2c4,0,7.2-3.2,7.2-7.2l3.6,0.9
		c6.2,1.5,10.7,5.7,10.7,11.6v5.9h-8.6v-5.9v5.9H31.6z"/>
	<path fill="none" stroke="#072F35" stroke-width="3" stroke-linecap="round" stroke-linejoin="round" stroke-miterlimit="10" d="
		M49.8,10.8H39.1c-3,0-5.4,2.4-5.4,5.4c0,6.9,5.5,12.5,10.7,12.5c5.3,0,10.7-5.6,10.7-12.5C55.2,13.2,52.8,10.8,49.8,10.8z"/>
	<path fill="none" stroke="#072F35" stroke-width="3" stroke-linecap="round" stroke-linejoin="round" stroke-miterlimit="10" d="
		M48.9,28.7v-1.3c-1.4,0.8-3,1.3-4.5,1.3s-3.1-0.5-4.5-1.3v1.3c0,2-1.2,3.6-2.7,3.6c0,4,3.2,7.2,7.2,7.2c4,0,7.2-3.2,7.2-7.2
		C50.1,32.2,48.9,30.6,48.9,28.7z"/>
	<path fill="none" stroke="#072F35" stroke-width="3" stroke-linecap="round" stroke-linejoin="round" stroke-miterlimit="10" d="
		M55.2,16.1L55.2,16.1c0-3-2.4-5.4-5.4-5.4H39.1c-3,0-5.4,2.4-5.4,5.4l0,0c0,0-2.3-12.3,7.3-12.9c2.7-0.2,6.2,2.3,9.2,2.3
		c3,0,5-3.2,5-3.2V16.1z"/>
</g>
<g>
	<path fill="none" stroke="#072F35" stroke-width="3" stroke-linecap="round" stroke-linejoin="round" stroke-miterlimit="10" d="
		M75.3,50.7v-5.9V50.7h-8.6v-5.9c0-5.9,4.6-10.1,10.7-11.6l3.6-0.9c0,4,3.2,7.2,7.2,7.2c4,0,7.2-3.2,7.2-7.2l3.6,0.9
		c6.2,1.5,10.7,5.7,10.7,11.6v5.9h-8.6v-5.9v5.9H75.3z"/>
	<path fill="none" stroke="#072F35" stroke-width="3" stroke-linecap="round" stroke-linejoin="round" stroke-miterlimit="10" d="
		M93.6,10.8H82.8c-3,0-5.4,2.4-5.4,5.4c0,6.9,5.5,12.5,10.7,12.5c5.3,0,10.7-5.6,10.7-12.5C98.9,13.2,96.5,10.8,93.6,10.8z"/>
	<path fill="none" stroke="#072F35" stroke-width="3" stroke-linecap="round" stroke-linejoin="round" stroke-miterlimit="10" d="
		M92.7,28.7v-1.3c-1.4,0.8-3,1.3-4.5,1.3s-3.1-0.5-4.5-1.3v1.3c0,2-1.2,3.6-2.7,3.6c0,4,3.2,7.2,7.2,7.2c4,0,7.2-3.2,7.2-7.2
		C93.9,32.2,92.7,30.6,92.7,28.7z"/>
	<path fill="none" stroke="#072F35" stroke-width="3" stroke-linecap="round" stroke-linejoin="round" stroke-miterlimit="10" d="
		M98.9,16.1L98.9,16.1c0-3-2.4-5.4-5.4-5.4H82.8c-3,0-5.4,2.4-5.4,5.4l0,0c0,0-2.3-12.3,7.3-12.9c2.7-0.2,6.2,2.3,9.2,2.3
		c3,0,5-3.2,5-3.2V16.1z"/>
</g>
</svg>
