<?xml version="1.0" encoding="utf-8"?>
<!-- Generator: Adobe Illustrator 26.0.0, SVG Export Plug-In . SVG Version: 6.00 Build 0)  -->
<svg version="1.1" baseProfile="tiny" id="Layer_1" xmlns="http://www.w3.org/2000/svg" xmlns:xlink="http://www.w3.org/1999/xlink"
	 x="0px" y="0px" viewBox="0 0 117.5 57.3" overflow="visible" xml:space="preserve">
<g>
	<path fill="#EBDB2B" d="M112.6,57.3H4.9c-2.7,0-4.9-2.2-4.9-4.9V4.9C0,2.2,2.2,0,4.9,0h107.7c2.7,0,4.9,2.2,4.9,4.9v47.5
		C117.5,55.1,115.3,57.3,112.6,57.3z"/>
	<path fill="none" stroke="#1D1D1B" stroke-miterlimit="10" d="M110.5,54.6H7c-2,0-3.5-1.6-3.5-3.5V6.2c0-2,1.6-3.5,3.5-3.5h103.6
		c2,0,3.5,1.6,3.5,3.5v44.9C114,53,112.5,54.6,110.5,54.6z"/>
	<g>
		<path fill="#333333" d="M21.1,28.9H15L13.5,34h-2.9l6.1-20.3h2.7l6,20.3h-2.9L21.1,28.9z M15.6,26.6h4.8l-2.3-8.2H18L15.6,26.6z"
			/>
		<path fill="#333333" d="M36.7,28.9h-6.1L29.2,34h-2.9l6.1-20.3h2.7l6,20.3h-2.9L36.7,28.9z M31.3,26.6h4.8l-2.3-8.2h-0.1
			L31.3,26.6z"/>
		<path fill="#333333" d="M52.4,28.9h-6.1L44.9,34H42l6.1-20.3h2.7l6,20.3h-2.9L52.4,28.9z M47,26.6h4.8l-2.3-8.2h-0.1L47,26.6z"/>
	</g>
	<g>
		<path fill="#333333" d="M39.2,40.5L39.2,40.5c0.3,0,0.6,0.1,0.9,0.1c0.3,0.1,0.5,0.2,0.7,0.4c0.2,0.2,0.3,0.4,0.4,0.6
			c0.1,0.2,0.2,0.5,0.2,0.8c0,0.3,0,0.5-0.1,0.7s-0.2,0.3-0.3,0.5c-0.1,0.1-0.2,0.2-0.4,0.3s-0.2,0.1-0.3,0.1v0
			c0.1,0,0.3,0.1,0.5,0.1c0.2,0.1,0.3,0.2,0.5,0.4c0.1,0.2,0.3,0.4,0.4,0.6c0.1,0.2,0.2,0.5,0.2,0.8c0,0.8-0.2,1.3-0.7,1.7
			c-0.4,0.4-1.1,0.6-1.9,0.6h-1.9v-7.7H39.2z M39.2,43.5L39.2,43.5c0.3,0,0.5-0.1,0.6-0.2c0.2-0.2,0.2-0.4,0.2-0.7s-0.1-0.5-0.2-0.7
			c-0.2-0.2-0.4-0.2-0.6-0.2h-0.5v1.8H39.2z M39.3,46.9L39.3,46.9c0.3,0,0.6-0.1,0.8-0.3c0.2-0.2,0.3-0.5,0.3-0.8
			c0-0.4-0.1-0.6-0.3-0.8c-0.2-0.2-0.4-0.3-0.7-0.3h-0.6v2.3H39.3z"/>
		<path fill="#333333" d="M41.8,44.3c0-1.4,0.2-2.4,0.6-3c0.4-0.6,1-1,1.8-1c0.8,0,1.5,0.3,1.8,1s0.6,1.7,0.6,3c0,1.4-0.2,2.4-0.6,3
			c-0.4,0.6-1,0.9-1.8,0.9c-0.8,0-1.5-0.3-1.8-1S41.8,45.7,41.8,44.3L41.8,44.3z M43.2,44.3c0,1,0.1,1.6,0.2,2s0.4,0.6,0.8,0.6
			c0.4,0,0.6-0.2,0.8-0.6s0.2-1.1,0.2-2c0-0.5,0-0.9-0.1-1.2c0-0.3-0.1-0.6-0.2-0.8c-0.1-0.2-0.2-0.4-0.3-0.5s-0.3-0.2-0.5-0.2
			c-0.4,0-0.6,0.2-0.8,0.6C43.3,42.7,43.2,43.4,43.2,44.3L43.2,44.3z"/>
		<path fill="#333333" d="M50.5,47.4L50.5,47.4c-0.1,0.1-0.1,0.2-0.2,0.3c-0.1,0.1-0.2,0.2-0.3,0.3c-0.1,0.1-0.2,0.2-0.4,0.2
			c-0.1,0.1-0.3,0.1-0.5,0.1c-0.8,0-1.3-0.3-1.7-0.9c-0.4-0.6-0.6-1.6-0.6-3c0-1.4,0.2-2.4,0.6-3c0.4-0.6,1-1,1.8-1
			c0.6,0,1.1,0.2,1.4,0.5c0.4,0.3,0.6,0.8,0.8,1.5l-1.3,0.4c-0.1-0.4-0.2-0.7-0.4-0.8s-0.3-0.2-0.6-0.2c-0.4,0-0.6,0.2-0.8,0.6
			c-0.2,0.4-0.2,1.1-0.2,2c0,0.9,0.1,1.6,0.3,2s0.5,0.6,0.9,0.6c0.3,0,0.5-0.1,0.6-0.3c0.2-0.2,0.3-0.5,0.3-0.9V45h-1.2v-1.1h2.3
			v4.3h-1.1c0-0.3,0-0.5,0-0.6C50.5,47.5,50.5,47.4,50.5,47.4L50.5,47.4z"/>
		<path fill="#333333" d="M51.9,44.3c0-1.4,0.2-2.4,0.6-3c0.4-0.6,1-1,1.8-1c0.8,0,1.5,0.3,1.8,1c0.4,0.6,0.6,1.7,0.6,3
			c0,1.4-0.2,2.4-0.6,3c-0.4,0.6-1,0.9-1.8,0.9c-0.8,0-1.5-0.3-1.8-1C52.1,46.7,51.9,45.7,51.9,44.3L51.9,44.3z M53.3,44.3
			c0,1,0.1,1.6,0.2,2S54,47,54.3,47c0.4,0,0.6-0.2,0.8-0.6c0.1-0.4,0.2-1.1,0.2-2c0-0.5,0-0.9-0.1-1.2c0-0.3-0.1-0.6-0.2-0.8
			c-0.1-0.2-0.2-0.4-0.3-0.5s-0.3-0.2-0.5-0.2c-0.4,0-0.6,0.2-0.8,0.6C53.4,42.7,53.3,43.4,53.3,44.3L53.3,44.3z"/>
		<path fill="#333333" d="M61.4,40.5v1.4h-1.6v6.3h-1.4v-6.3h-1.6v-1.4H61.4z"/>
		<path fill="#333333" d="M65,46.6h-2l-0.3,1.5h-1.4l1.8-7.7h1.8l1.8,7.7h-1.4L65,46.6z M64.7,45.3l-0.5-2.5
			c-0.1-0.4-0.1-0.7-0.2-0.9s0-0.2,0-0.2h0c0,0,0,0.1,0,0.2s-0.1,0.4-0.2,0.9l-0.5,2.5H64.7z"/>
		<path fill="#333333" d="M70.2,40.5L70.2,40.5c1.1,0,1.9,0.3,2.4,1s0.8,1.6,0.8,2.9c0,1.2-0.3,2.2-0.8,2.8c-0.5,0.7-1.3,1-2.4,1
			h-1.6v-7.7H70.2z M70.6,46.8L70.6,46.8c0.3,0,0.5-0.1,0.7-0.2c0.2-0.1,0.3-0.3,0.4-0.5c0.1-0.2,0.2-0.5,0.2-0.8s0.1-0.7,0.1-1.1
			c0-0.9-0.1-1.5-0.4-1.9c-0.3-0.4-0.6-0.6-1.2-0.6h-0.3v5H70.6z"/>
		<path fill="#333333" d="M74.4,48.3c-0.2,0-0.3-0.1-0.5-0.2c-0.1-0.1-0.2-0.3-0.2-0.5c0-0.2,0.1-0.4,0.2-0.5
			c0.1-0.1,0.3-0.2,0.5-0.2c0.2,0,0.4,0.1,0.5,0.2c0.1,0.1,0.2,0.3,0.2,0.5c0,0.2-0.1,0.4-0.2,0.5C74.8,48.2,74.6,48.2,74.4,48.3
			L74.4,48.3z"/>
		<path fill="#333333" d="M78.7,42.7L78.7,42.7c-0.1-0.4-0.2-0.7-0.4-0.8c-0.2-0.1-0.3-0.2-0.5-0.2c-0.4,0-0.6,0.2-0.8,0.6
			c-0.2,0.4-0.2,1.1-0.2,2c0,0.9,0.1,1.6,0.3,2c0.2,0.4,0.4,0.6,0.8,0.6c0.3,0,0.5-0.1,0.6-0.3c0.2-0.2,0.3-0.5,0.4-1l1.3,0.3
			c-0.1,0.8-0.4,1.3-0.8,1.7s-0.9,0.5-1.5,0.5c-0.8,0-1.5-0.3-1.8-1c-0.4-0.6-0.6-1.7-0.6-3c0-1.4,0.2-2.4,0.6-3s1-1,1.8-1
			c0.6,0,1.1,0.2,1.4,0.5c0.4,0.3,0.6,0.8,0.8,1.5L78.7,42.7z"/>
		<path fill="#333333" d="M81,48.3c-0.2,0-0.3-0.1-0.5-0.2c-0.1-0.1-0.2-0.3-0.2-0.5c0-0.2,0.1-0.4,0.2-0.5c0.1-0.1,0.3-0.2,0.5-0.2
			c0.2,0,0.4,0.1,0.5,0.2c0.1,0.1,0.2,0.3,0.2,0.5c0,0.2-0.1,0.4-0.2,0.5C81.4,48.2,81.2,48.2,81,48.3L81,48.3z"/>
	</g>
	<g>
		<path fill="#333333" d="M75.3,34h-2.8V16.1l-4,0.2v-2.1l6.8-0.8V34z"/>
		<path fill="#333333" d="M91.3,34H79.6v-1.9l5.7-7.5c0.9-1.3,1.6-2.4,2-3.2c0.4-0.8,0.5-1.6,0.5-2.4c0-1-0.2-1.9-0.7-2.5
			c-0.5-0.6-1.1-0.9-2-0.9c-1,0-1.7,0.4-2.3,1.1c-0.5,0.8-0.8,1.7-0.8,2.9h-2.8l0-0.1c0-1.7,0.5-3.1,1.5-4.3
			c1.1-1.2,2.5-1.8,4.3-1.8c1.7,0,3.1,0.5,4.1,1.5s1.5,2.4,1.5,4c0,1.1-0.3,2.2-0.9,3.3c-0.6,1.1-1.5,2.4-2.7,3.9l-4,5.6h8.1V34z"/>
		<path fill="#333333" d="M99.8,22.5c1,0,1.8-0.3,2.3-0.9c0.5-0.6,0.7-1.5,0.7-2.5c0-1-0.2-1.9-0.7-2.5c-0.5-0.6-1.2-1-2.1-1
			c-0.9,0-1.6,0.3-2.1,1c-0.6,0.6-0.8,1.5-0.8,2.4h-2.8l0-0.1c0-1.6,0.5-2.9,1.6-3.9c1.1-1.1,2.5-1.6,4.2-1.6c1.8,0,3.2,0.5,4.2,1.5
			c1,1,1.6,2.4,1.6,4.2c0,1-0.2,1.8-0.7,2.6c-0.5,0.8-1.2,1.4-2,1.8c1,0.4,1.7,1,2.3,1.8s0.8,1.8,0.8,3c0,1.8-0.6,3.3-1.7,4.3
			c-1.1,1-2.6,1.6-4.3,1.6c-1.6,0-3-0.5-4.2-1.5c-1.2-1-1.8-2.4-1.7-4.2l0-0.1h2.7c0,1,0.3,1.9,0.9,2.6s1.4,1,2.3,1
			c1,0,1.7-0.3,2.3-1c0.6-0.7,0.9-1.6,0.9-2.7c0-1.3-0.3-2.2-0.8-2.8c-0.6-0.6-1.4-0.9-2.5-0.9h-1.9v-2.1H99.8z"/>
	</g>
	<circle fill="#333333" cx="63.4" cy="24.8" r="3.2"/>
</g>
</svg>
