<?xml version="1.0" encoding="utf-8"?>
<!-- Generator: Adobe Illustrator 26.0.0, SVG Export Plug-In . SVG Version: 6.00 Build 0)  -->
<svg version="1.1" baseProfile="tiny" id="Layer_1" xmlns="http://www.w3.org/2000/svg" xmlns:xlink="http://www.w3.org/1999/xlink"
	 x="0px" y="0px" viewBox="0 0 33.1 30.9" overflow="visible" xml:space="preserve">
<g>
	
		<circle fill="none" stroke="#45E6DD" stroke-linecap="round" stroke-linejoin="round" stroke-miterlimit="10" cx="7.1" cy="9.5" r="1.8"/>
	<path fill="none" stroke="#45E6DD" stroke-linecap="round" stroke-linejoin="round" stroke-miterlimit="10" d="M13.6,4.3h4.9
		c0.6,0,1.2,0.2,1.7,0.7l11.6,11.6c0.9,0.9,0.9,2.4,0,3.3l-4.9,4.9c-0.9,0.9-2.4,0.9-3.3,0l-9-9"/>
	
		<line fill="none" stroke="#45E6DD" stroke-linecap="round" stroke-linejoin="round" stroke-miterlimit="10" x1="25.4" y1="16.6" x2="25.4" y2="20.1"/>
	
		<line fill="none" stroke="#45E6DD" stroke-linecap="round" stroke-linejoin="round" stroke-miterlimit="10" x1="27.1" y1="18.4" x2="23.6" y2="18.4"/>
	
		<line fill="none" stroke="#45E6DD" stroke-linecap="round" stroke-linejoin="round" stroke-miterlimit="10" x1="21.9" y1="13.1" x2="21.9" y2="16.6"/>
	
		<line fill="none" stroke="#45E6DD" stroke-linecap="round" stroke-linejoin="round" stroke-miterlimit="10" x1="23.6" y1="14.8" x2="20.1" y2="14.8"/>
	
		<line fill="none" stroke="#45E6DD" stroke-linecap="round" stroke-linejoin="round" stroke-miterlimit="10" x1="18.3" y1="9.5" x2="18.3" y2="13.1"/>
	
		<line fill="none" stroke="#45E6DD" stroke-linecap="round" stroke-linejoin="round" stroke-miterlimit="10" x1="20.1" y1="11.3" x2="16.6" y2="11.3"/>
	<path fill="none" stroke="#45E6DD" stroke-linecap="round" stroke-linejoin="round" stroke-miterlimit="10" d="M14.4,1.9
		c-0.8-0.7-1.9-1.2-3.1-1.2c-2.6,0-4.7,2.1-4.7,4.7c0,1.7,0.9,3.3,2.3,4.1"/>
	<path fill="none" stroke="#45E6DD" stroke-linecap="round" stroke-linejoin="round" stroke-miterlimit="10" d="M6.7,4.3
		c-3.4,0.2-6,3-6,6.4c0,2.5,1.4,4.7,3.5,5.8v10.7l2.9,2.9l2.9-2.9l-2.4-2.4l2.4-2.4l-2.4-2.4l2.4-2.4v-1.3c2.1-1.1,3.5-3.2,3.5-5.8
		c0-2.9-1.9-5.3-4.5-6.2"/>
</g>
</svg>
