<?xml version="1.0" encoding="utf-8"?>
<!-- Generator: Adobe Illustrator 26.0.0, SVG Export Plug-In . SVG Version: 6.00 Build 0)  -->
<svg version="1.1" baseProfile="tiny" id="Layer_1" xmlns="http://www.w3.org/2000/svg" xmlns:xlink="http://www.w3.org/1999/xlink"
	 x="0px" y="0px" viewBox="0 0 71.3 69.1" overflow="visible" xml:space="preserve">
<g>
	<path fill="none" stroke="#45E6DD" stroke-width="3" stroke-linecap="round" stroke-linejoin="round" stroke-miterlimit="10" d="
		M14.8,67.5H5.4c-1.6,0-2.9-1.3-2.9-2.9V30.8c0-1.6,1.3-2.9,2.9-2.9h9.4c1.6,0,2.9,1.3,2.9,2.9v33.7C17.7,66.2,16.4,67.5,14.8,67.5z
		"/>
	<path fill="none" stroke="#45E6DD" stroke-width="3" stroke-linecap="round" stroke-linejoin="round" stroke-miterlimit="10" d="
		M17.7,52.3c0,8.4,6.8,15.2,15.2,15.2h9.9h18.3c2.9,0,5.3-2.4,5.3-5.3l0,0c0-2.9-2.4-5.3-5.3-5.3l-6.1,0h7.6c2.9,0,5.3-2.4,5.3-5.3
		c0-2.9-2.4-5.3-5.3-5.3l-6.2,0h7.7c2.9,0,5.3-2.4,5.3-5.3v0c0-2.9-2.4-5.3-5.3-5.3c0.2,0-6.4,0-6.2,0l6.2,0c0.3,0,1-0.1,1.1-0.1
		c2.4-0.5,4.3-2.7,4.3-5.2c0-2.9-2.4-5.3-5.3-5.3H43.6c0,0,6.6-7.8,1.8-18.2c-2-4.4-5.4-5-6.7-5c-4.2,0-3.1,6.1-4.2,9.7
		c-4,12.4-12.6,21.1-16.8,21.1V52.3z"/>
</g>
</svg>
