<?xml version="1.0" encoding="utf-8"?>
<!-- Generator: Adobe Illustrator 26.0.0, SVG Export Plug-In . SVG Version: 6.00 Build 0)  -->
<svg version="1.1" baseProfile="tiny" id="Layer_1" xmlns="http://www.w3.org/2000/svg" xmlns:xlink="http://www.w3.org/1999/xlink"
	 x="0px" y="0px" viewBox="0 0 60.5 71.6" overflow="visible" xml:space="preserve">
<g>
	<path fill="none" stroke="#45E6DD" stroke-width="3" stroke-linecap="round" stroke-linejoin="round" stroke-miterlimit="10" d="
		M55.1,70H5.4c-2.1,0-3.9-1.7-3.9-3.9l0-14.2c0-2.1,1.7-3.9,3.9-3.9h49.8c2.1,0,3.9,1.7,3.9,3.9v14.2C59,68.2,57.3,70,55.1,70z"/>
	
		<line fill="none" stroke="#45E6DD" stroke-width="3" stroke-linecap="round" stroke-linejoin="round" stroke-miterlimit="10" x1="11.1" y1="56.3" x2="16.6" y2="61.8"/>
	
		<line fill="none" stroke="#45E6DD" stroke-width="3" stroke-linecap="round" stroke-linejoin="round" stroke-miterlimit="10" x1="16.6" y1="56.3" x2="11.1" y2="61.8"/>
	
		<line fill="none" stroke="#45E6DD" stroke-width="3" stroke-linecap="round" stroke-linejoin="round" stroke-miterlimit="10" x1="22" y1="56.3" x2="27.5" y2="61.8"/>
	
		<line fill="none" stroke="#45E6DD" stroke-width="3" stroke-linecap="round" stroke-linejoin="round" stroke-miterlimit="10" x1="27.5" y1="56.3" x2="22" y2="61.8"/>
	
		<line fill="none" stroke="#45E6DD" stroke-width="3" stroke-linecap="round" stroke-linejoin="round" stroke-miterlimit="10" x1="33" y1="56.3" x2="38.5" y2="61.8"/>
	
		<line fill="none" stroke="#45E6DD" stroke-width="3" stroke-linecap="round" stroke-linejoin="round" stroke-miterlimit="10" x1="38.5" y1="56.3" x2="33" y2="61.8"/>
	
		<line fill="none" stroke="#45E6DD" stroke-width="3" stroke-linecap="round" stroke-linejoin="round" stroke-miterlimit="10" x1="43.9" y1="56.3" x2="49.4" y2="61.8"/>
	
		<line fill="none" stroke="#45E6DD" stroke-width="3" stroke-linecap="round" stroke-linejoin="round" stroke-miterlimit="10" x1="49.4" y1="56.3" x2="43.9" y2="61.8"/>
	<path fill="none" stroke="#45E6DD" stroke-width="3" stroke-linecap="round" stroke-linejoin="round" stroke-miterlimit="10" d="
		M30.2,26.2l-1.4-10.9c0-0.8,0.6-1.4,1.4-1.4l0,0c0.8,0,1.4,0.6,1.4,1.4L30.2,26.2z"/>
	
		<circle fill="none" stroke="#45E6DD" stroke-width="3" stroke-linecap="round" stroke-linejoin="round" stroke-miterlimit="10" cx="30.2" cy="33" r="1.4"/>
	<path fill="none" stroke="#45E6DD" stroke-width="3" stroke-linecap="round" stroke-linejoin="round" stroke-miterlimit="10" d="
		M51.8,36L32.5,2.8c-1-1.7-3.5-1.7-4.5,0L8.7,36c-1,1.7,0.3,3.8,2.2,3.8h38.6C51.5,39.9,52.8,37.7,51.8,36z"/>
</g>
</svg>
