<?xml version="1.0" encoding="utf-8"?>
<!-- Generator: Adobe Illustrator 26.0.0, SVG Export Plug-In . SVG Version: 6.00 Build 0)  -->
<svg version="1.1" baseProfile="tiny" id="Layer_1" xmlns="http://www.w3.org/2000/svg" xmlns:xlink="http://www.w3.org/1999/xlink"
	 x="0px" y="0px" viewBox="0 0 63.9 40.6" overflow="visible" xml:space="preserve">
<g>
	<path fill="#072F35" d="M57.3,21.2h-9.9c-0.5,0-0.9-0.4-0.9-0.9v-6.7c0-0.5,0.4-0.9,0.9-0.9h6.8c0.3,0,0.5,0.1,0.7,0.3l3,3.7
		c0.1,0.2,0.2,0.4,0.2,0.6v3C58.2,20.8,57.8,21.2,57.3,21.2z M48.3,19.4h8.1v-1.8l-2.6-3.1h-5.6V19.4z"/>
	<path fill="#072F35" d="M19.1,23.3H3c-0.5,0-0.9-0.4-0.9-0.9c0-0.5,0.4-0.9,0.9-0.9h16.1c0.5,0,0.9,0.4,0.9,0.9
		C20,23,19.6,23.3,19.1,23.3z"/>
	<path fill="#072F35" d="M25.5,33.7c0,0.9-0.7,1.5-1.5,1.5c-0.8,0-1.5-0.7-1.5-1.5s0.7-1.5,1.5-1.5C24.8,32.2,25.5,32.9,25.5,33.7z"
		/>
	<path fill="#072F35" d="M24.4,16.7H12.1c-0.5,0-0.9-0.4-0.9-0.9c0-0.5,0.4-0.9,0.9-0.9h12.3c0.5,0,0.9,0.4,0.9,0.9
		C25.2,16.3,24.9,16.7,24.4,16.7z"/>
	<path fill="#072F35" d="M31.5,10.2H20.3c-0.5,0-0.9-0.4-0.9-0.9c0-0.5,0.4-0.9,0.9-0.9h11.2c0.5,0,0.9,0.4,0.9,0.9
		C32.4,9.8,32,10.2,31.5,10.2z"/>
	<path fill="#072F35" d="M24,39.6c-3.2,0-5.8-2.6-5.8-5.9s2.6-5.9,5.8-5.9c3.2,0,5.8,2.6,5.8,5.9S27.2,39.6,24,39.6z M24,29.6
		c-2.2,0-4.1,1.9-4.1,4.2c0,2.3,1.8,4.2,4.1,4.2c2.2,0,4.1-1.9,4.1-4.2C28.1,31.4,26.2,29.6,24,29.6z"/>
	<path fill="#072F35" d="M18.8,31.3h-7.6c-0.5,0-0.9,0.4-0.9,0.9s0.4,0.9,0.9,0.9h7.1C18.4,32.4,18.5,31.8,18.8,31.3z"/>
	<path fill="#072F35" d="M42.5,1.2H27.9c-0.5,0-0.9,0.4-0.9,0.9S27.5,3,27.9,3h14.5c0.2,0,0.4,0.2,0.4,0.4v27.4
		c0,0.2-0.2,0.4-0.4,0.4H29.2c0.2,0.5,0.4,1.1,0.5,1.7h12.8c1.2,0,2.1-1,2.1-2.2V3.4C44.6,2.2,43.7,1.2,42.5,1.2z"/>
	<path fill="#072F35" d="M54.3,39.6c-3.2,0-5.8-2.6-5.8-5.9s2.6-5.9,5.8-5.9c3.2,0,5.8,2.6,5.8,5.9S57.5,39.6,54.3,39.6z M54.3,29.6
		c-2.2,0-4.1,1.9-4.1,4.2c0,2.3,1.8,4.2,4.1,4.2c2.2,0,4.1-1.9,4.1-4.2C58.4,31.4,56.5,29.6,54.3,29.6z"/>
	<path fill="#072F35" d="M49.1,31.3h-4.5c-0.2,1-1.1,1.7-2.1,1.7h6.1C48.7,32.4,48.8,31.8,49.1,31.3z"/>
	<path fill="#072F35" d="M63,17.4l-5.4-7.1c-0.7-0.9-1.7-1.4-2.7-1.4H44.6v1.7h10.2c0.5,0,1.1,0.3,1.4,0.7l5.4,7.1
		c0.4,0.5,0.6,1.2,0.6,1.8v10.6c0,0.2-0.2,0.4-0.4,0.4h-2.3c0.2,0.5,0.4,1.1,0.5,1.7h1.8c1.2,0,2.1-1,2.1-2.2V20.3
		C63.9,19.3,63.6,18.2,63,17.4z"/>
	<path fill="#072F35" d="M55.8,33.7c0,0.9-0.7,1.5-1.5,1.5c-0.8,0-1.5-0.7-1.5-1.5s0.7-1.5,1.5-1.5C55.1,32.2,55.8,32.9,55.8,33.7z"
		/>
</g>
</svg>
