<?xml version="1.0" encoding="utf-8"?>
<!-- Generator: Adobe Illustrator 26.0.0, SVG Export Plug-In . SVG Version: 6.00 Build 0)  -->
<svg version="1.1" baseProfile="tiny" id="Layer_1" xmlns="http://www.w3.org/2000/svg" xmlns:xlink="http://www.w3.org/1999/xlink"
	 x="0px" y="0px" viewBox="0 0 30 27.3" overflow="visible" xml:space="preserve">
<g>
	<path fill="none" stroke="#072F35" stroke-linecap="round" stroke-linejoin="round" stroke-miterlimit="10" d="M14.7,4.9L3.9,14.8
		v11.9h22.5V14.8L15.5,4.9C15.2,4.7,14.9,4.7,14.7,4.9z"/>
	<path fill="none" stroke="#072F35" stroke-linecap="round" stroke-linejoin="round" stroke-miterlimit="10" d="M29.3,14.3l-4.6-4.5
		V2.9h-4.5v2.6L15.5,1c-0.2-0.2-0.6-0.2-0.8,0L0.9,14.3c-0.2,0.2-0.2,0.6,0,0.8L1.8,16c0.2,0.2,0.6,0.2,0.8,0L14.7,4.9
		c0.2-0.2,0.5-0.2,0.8,0L27.6,16c0.2,0.2,0.6,0.2,0.8,0l0.9-0.9C29.5,14.9,29.5,14.5,29.3,14.3z"/>
	<path fill="none" stroke="#072F35" stroke-linecap="round" stroke-linejoin="round" stroke-miterlimit="10" d="M17.9,26.7v-6.2
		c0-1.5-1.3-2.8-2.8-2.8l0,0c-1.5,0-2.8,1.3-2.8,2.8v6.2H17.9z"/>
</g>
</svg>
