<?xml version="1.0" encoding="utf-8"?>
<!-- Generator: Adobe Illustrator 26.0.0, SVG Export Plug-In . SVG Version: 6.00 Build 0)  -->
<svg version="1.1" baseProfile="tiny" id="Layer_1" xmlns="http://www.w3.org/2000/svg" xmlns:xlink="http://www.w3.org/1999/xlink"
	 x="0px" y="0px" viewBox="0 0 42 42" overflow="visible" xml:space="preserve">
<g>
	<circle fill="#072F35" cx="21" cy="21" r="20.6"/>
	<g>
		<path fill="#45E6DD" d="M16.4,31c-0.1,0-0.2,0-0.3-0.1l-5.2-5.3c-0.2-0.2-0.2-0.4,0-0.6c0.2-0.2,0.4-0.2,0.6,0l5.2,5.3
			c0.2,0.2,0.2,0.4,0,0.6C16.6,31,16.5,31,16.4,31z"/>
		<path fill="#45E6DD" d="M27.6,20.1l0,0.9c0,0.6-0.2,1.1-0.6,1.5L16.3,33.4c-0.2,0.2-0.7,0.2-0.9,0l-7-7.1c-0.2-0.3-0.2-0.7,0-0.9
			l10.7-10.8c0.4-0.4,0.9-0.6,1.5-0.6l5.9,0.1c0.4,0,1,0.6,1,1l0,1.9c0.3-0.1,0.6-0.3,0.8-0.5l0-1.4c0,0,0,0,0,0
			c-0.1-0.9-0.9-1.7-1.8-1.8c0,0,0,0,0,0l-5.9-0.1l-0.1,0c-0.8,0-1.5,0.3-2.1,0.9L7.9,24.8c-0.6,0.6-0.6,1.5,0,2.1l7,7.1
			c0.3,0.3,0.7,0.4,1.1,0.4c0.4,0,0.8-0.2,1.1-0.4l10.7-10.8c0.6-0.6,0.9-1.3,0.9-2.2l0-1.2C28.2,20,27.9,20.1,27.6,20.1z"/>
		<path fill="#45E6DD" d="M31.3,9.7c-0.6-0.6-1.3-0.9-2.3-0.9c-2,0-4.3,1.4-5.1,3.3l0.9,0c0.8-1.4,2.6-2.4,4.2-2.4
			c0.5,0,1.2,0.1,1.7,0.6c0.5,0.5,0.7,1.2,0.7,2.1c0,3.2-2.2,5.3-4.3,5.8c-1.2,0.3-2.3,0.1-2.7-0.7c-0.1-0.2-0.4-0.3-0.6-0.2
			c-0.2,0.1-0.3,0.4-0.2,0.6c0.4,0.8,1.3,1.3,2.4,1.3c0.4,0,0.8-0.1,1.2-0.2c2.4-0.6,5-3,5-6.6C32.2,11.3,31.9,10.3,31.3,9.7z"/>
		<path fill="#45E6DD" d="M24,19.8c-0.6,0-1.1-0.2-1.5-0.6c-0.8-0.8-0.8-2.2,0-3.1c0.4-0.4,0.9-0.6,1.5-0.6c0.6,0,1.1,0.2,1.5,0.6
			c0.8,0.8,0.8,2,0.1,2.9c0,0.1-0.1,0.1-0.1,0.2C25.1,19.6,24.6,19.8,24,19.8z M24,16.4c-0.3,0-0.7,0.1-0.9,0.4
			c-0.5,0.5-0.5,1.3,0,1.8c0.2,0.2,0.6,0.4,0.9,0.4c0.3,0,0.7-0.1,0.9-0.4c0,0,0.1-0.1,0.1-0.1c0.4-0.5,0.4-1.3-0.1-1.7
			C24.7,16.5,24.3,16.4,24,16.4z"/>
	</g>
</g>
</svg>
