<?xml version="1.0" encoding="utf-8"?>
<!-- Generator: Adobe Illustrator 26.0.0, SVG Export Plug-In . SVG Version: 6.00 Build 0)  -->
<svg version="1.1" baseProfile="tiny" id="Layer_1" xmlns="http://www.w3.org/2000/svg" xmlns:xlink="http://www.w3.org/1999/xlink"
	 x="0px" y="0px" viewBox="0 0 42 42" overflow="visible" xml:space="preserve">
<g>
	<circle fill="#072F35" cx="21" cy="21" r="20.6"/>
	<g>
		<path fill="none" stroke="#45E6DD" stroke-linecap="round" stroke-linejoin="round" stroke-miterlimit="10" d="M27.9,33
			c1,0,1.9-0.9,1.9-1.9v-2.9H13.2c-1.3,0-2.4,1.1-2.4,2.4v0c0,1.3,1.1,2.4,2.4,2.4H27.9z"/>
		<path fill="none" stroke="#45E6DD" stroke-linecap="round" stroke-linejoin="round" stroke-miterlimit="10" d="M29.8,30.6H15.1
			c0,0,0,0,0,0c0,0,0,0,0,0L29.8,30.6C29.8,30.6,29.8,30.6,29.8,30.6C29.8,30.6,29.8,30.6,29.8,30.6z"/>
		<g>
			<path fill="none" stroke="#45E6DD" stroke-linecap="round" stroke-linejoin="round" stroke-miterlimit="10" d="M12.7,10.1
				c-1,0-1.9,0.9-1.9,1.9v18.6c0-1.3,1.1-2.4,2.4-2.4V10.1H12.7z"/>
			<path fill="none" stroke="#45E6DD" stroke-linecap="round" stroke-linejoin="round" stroke-miterlimit="10" d="M27.9,10.1H13.2
				v18.1h16.7V12C29.8,11,29,10.1,27.9,10.1z"/>
		</g>
	</g>
</g>
</svg>
