<?xml version="1.0" encoding="utf-8"?>
<!-- Generator: Adobe Illustrator 26.0.0, SVG Export Plug-In . SVG Version: 6.00 Build 0)  -->
<svg version="1.1" baseProfile="tiny" id="Layer_1" xmlns="http://www.w3.org/2000/svg" xmlns:xlink="http://www.w3.org/1999/xlink"
	 x="0px" y="0px" viewBox="0 0 167 38.4" overflow="visible" xml:space="preserve">
<g>
	<g id="hwaQin.tif_00000021839459004883517730000014056970444360715658_">
		<g>
			<path fill="#45E6DD" d="M15.9,35C7.2,35-0.1,27.9,0,18.9c0.1-8.5,7-15.5,15.9-15.5c8.7,0,15.8,7.1,15.8,15.9
				C31.7,27.9,24.5,35.1,15.9,35z M15.9,24c2.7,0,4.8-2.1,4.8-4.8c0-2.7-2.1-4.8-4.8-4.8c-2.7,0-4.8,2.2-4.8,4.8
				C11.1,21.8,13.2,24,15.9,24z"/>
			<path fill="#45E6DD" d="M35,0c3,0,6.1,0,9.1,0c0,0.1,0,0.2,0,0.3c0,12.5,0,24.9,0,37.4c0,0.2,0,0.3,0,0.5c0,0.1-0.1,0.1-0.2,0.2
				c0,0-0.1,0-0.1,0c-2.9,0-5.8,0-8.6,0c-0.1,0-0.1,0-0.2,0C35,25.6,35,12.8,35,0z"/>
			<path fill="#45E6DD" d="M57.5,25.3c-1,1-2,1.9-2.9,2.9c-0.4,0.4-0.7,0.5-1.3,0.5c-1.7,0-3.4,0-5.1,0c-0.1,0-0.2,0-0.3,0
				c0-0.1,0-0.2,0-0.3c0-1.9,0-3.7,0-5.6c0-0.1,0.1-0.3,0.2-0.4c1-1,2.1-2.1,3.2-3.1c0.1-0.1,0.1-0.1,0.2-0.2
				c-0.4-0.4-0.9-0.9-1.3-1.3c-0.7-0.7-1.3-1.3-2-2c-0.1-0.1-0.2-0.2-0.2-0.3c0-1.9,0-3.9,0-5.8c0,0,0-0.1,0-0.2c0.1,0,0.2,0,0.3,0
				c1.8,0,3.7,0,5.5,0c0.1,0,0.3,0.1,0.4,0.2c1.1,1.1,2.2,2.2,3.4,3.4c0.4-0.4,0.8-0.8,1.2-1.2c0.7-0.7,1.5-1.5,2.2-2.2
				c0.1-0.1,0.2-0.1,0.3-0.1c1.9,0,3.9,0,5.8,0c0,0,0.1,0,0.1,0c0,0.1,0,0.2,0,0.3c0,1.9,0,3.7,0,5.6c0,0.2-0.1,0.3-0.2,0.4
				c-1,1-2.1,2.1-3.1,3.1c-0.2,0.2-0.2,0.3,0,0.4c0.1,0.1,0.2,0.2,0.3,0.3c1,1,2,2,3,2.9c0,0,0.1,0.1,0.1,0.2c0,2,0,3.9,0,5.9
				c0,0,0,0,0,0.1c-0.1,0-0.2,0-0.3,0c-1.9,0-3.8,0-5.6,0c-0.1,0-0.3-0.1-0.4-0.2C59.7,27.5,58.6,26.4,57.5,25.3z"/>
		</g>
	</g>
	<rect x="81.1" y="1.4" fill="#FDCD53" width="1.9" height="35.6"/>
	<g>
		<path fill="#45E6DD" d="M99.5,25.6l-1.1,3.5h-5.2L99,11h6.9l6,18.2h-5.6l-1.1-3.5H99.5z M104.3,21.7c-0.9-2.9-1.6-5.4-2-7.2h-0.1
			c-0.4,2-1.1,4.5-1.9,7.2H104.3z"/>
		<path fill="#45E6DD" d="M126.1,24.7c0,1.2,0,3.1,0,4.4h-5c-0.1-0.3-0.1-1.1-0.1-1.5c-0.9,1.3-2.1,1.8-3.8,1.8
			c-3,0-4.5-1.8-4.5-5.1v-9.1h5.1v8.2c0,1.3,0.4,2.1,1.5,2.1c1.2,0,1.7-0.7,1.7-2.7v-7.6h5.1V24.7z"/>
		<path fill="#45E6DD" d="M127.8,15.3h2v-3.6h5.1v3.6h2.4v3.5h-2.4v5.9c0,0.9,0.3,1.2,1.3,1.2c0.2,0,0.4,0,0.7,0V29
			c-0.8,0.3-2.1,0.3-3,0.3c-3.3,0-4.2-1.6-4.2-4.2v-6.4h-2V15.3z"/>
		<path fill="#45E6DD" d="M152.7,22.2c0,4.3-2.7,7.3-7.4,7.3c-4.9,0-7.3-3.2-7.3-7.2c0-4.2,2.5-7.3,7.5-7.3
			C150,15,152.7,18,152.7,22.2z M143.2,22.2c0,2.6,0.8,3.8,2.1,3.8c1.4,0,2.1-1.2,2.1-3.7c0-2.8-0.7-3.8-2.1-3.8
			C144,18.4,143.2,19.4,143.2,22.2z"/>
		<path fill="#45E6DD" d="M158.4,24.9c0.2,0.9,0.9,1.4,2.1,1.4c1,0,1.5-0.3,1.5-0.9c0-0.7-0.6-0.9-2.4-1.3c-4.8-1.1-5.4-2.6-5.4-4.6
			c0-2,1.4-4.4,6.1-4.4c4.5,0,6.1,2.3,6.3,4.3h-4.6c-0.1-0.5-0.4-1.2-1.8-1.2c-0.9,0-1.3,0.4-1.3,0.9c0,0.5,0.5,0.8,2.7,1.3
			c4.4,1,5.4,2.5,5.4,4.7c0,2.5-1.8,4.6-6.5,4.6c-4.5,0-6.4-2.2-6.7-4.6H158.4z"/>
	</g>
</g>
</svg>
