<?xml version="1.0" encoding="utf-8"?>
<!-- Generator: Adobe Illustrator 26.0.0, SVG Export Plug-In . SVG Version: 6.00 Build 0)  -->
<svg version="1.1" baseProfile="tiny" id="Layer_1" xmlns="http://www.w3.org/2000/svg" xmlns:xlink="http://www.w3.org/1999/xlink"
	 x="0px" y="0px" viewBox="0 0 98.3 56.3" overflow="visible" xml:space="preserve">
<g id="hwaQin.tif_00000128454332802663881790000003280625169741218228_">
	<g>
		<path fill="#0a2d34" d="M23.2,51.3C10.5,51.3-0.2,40.9,0,27.7C0.2,15.3,10.3,4.9,23.3,5c12.7,0,23.1,10.4,23.1,23.2
			C46.3,40.9,35.9,51.4,23.2,51.3z M23.2,35.1c3.9,0,7-3.1,7-7c0-3.9-3.1-7-7-7c-3.9,0-7,3.2-7,7C16.2,32,19.3,35.1,23.2,35.1z"/>
		<path fill="#0a2d34" d="M51.2,0c4.4,0,8.9,0,13.3,0c0,0.2,0,0.3,0,0.5c0,18.3,0,36.5,0,54.8c0,0.3,0,0.5,0,0.8
			c0,0.1-0.1,0.2-0.2,0.2c0,0-0.1,0-0.2,0c-4.2,0-8.4,0-12.7,0c-0.1,0-0.2,0-0.3,0C51.2,37.5,51.2,18.8,51.2,0z"/>
		<path fill="#0a2d34" d="M84.2,37.1c-1.5,1.5-2.9,2.8-4.3,4.3c-0.5,0.6-1.1,0.8-1.8,0.8c-2.5-0.1-5,0-7.5,0c-0.1,0-0.3,0-0.5,0
			c0-0.2,0-0.3,0-0.4c0-2.7,0-5.4,0-8.1c0-0.2,0.1-0.4,0.2-0.6c1.5-1.5,3.1-3.1,4.6-4.6c0.1-0.1,0.1-0.2,0.2-0.3
			c-0.7-0.7-1.3-1.3-1.9-1.9c-1-1-2-1.9-2.9-2.9c-0.1-0.1-0.2-0.3-0.2-0.5c0-2.8,0-5.7,0-8.5c0-0.1,0-0.1,0-0.2c0.1,0,0.3,0,0.4,0
			c2.7,0,5.4,0,8.1,0c0.2,0,0.4,0.1,0.6,0.2c1.6,1.6,3.3,3.3,4.9,4.9c0.6-0.6,1.1-1.2,1.7-1.7c1.1-1.1,2.2-2.2,3.2-3.2
			c0.1-0.1,0.3-0.2,0.4-0.2c2.8,0,5.7,0,8.5,0c0.1,0,0.1,0,0.2,0c0,0.1,0,0.3,0,0.4c0,2.7,0,5.5,0,8.2c0,0.3-0.1,0.5-0.3,0.6
			c-1.5,1.5-3.1,3.1-4.6,4.6c-0.3,0.2-0.3,0.4,0,0.6c0.2,0.1,0.2,0.3,0.4,0.4c1.4,1.4,2.9,2.9,4.3,4.3c0.1,0.1,0.1,0.2,0.1,0.2
			c0,2.9,0,5.7,0,8.6c0,0,0,0,0,0.1c-0.1,0-0.2,0-0.4,0c-2.8,0-5.5,0-8.3,0c-0.2,0-0.4-0.1-0.6-0.3C87.4,40.3,85.8,38.7,84.2,37.1z"
			/>
	</g>
</g>
</svg>
