<?xml version="1.0" encoding="utf-8"?>
<!-- Generator: Adobe Illustrator 26.0.0, SVG Export Plug-In . SVG Version: 6.00 Build 0)  -->
<svg version="1.1" id="Layer_1" xmlns="http://www.w3.org/2000/svg" xmlns:xlink="http://www.w3.org/1999/xlink" x="0px" y="0px"
	 viewBox="0 0 42 42" style="enable-background:new 0 0 42 42;" xml:space="preserve">
<g>
	<circle style="fill:#45E6DD;" cx="21" cy="21" r="20.6"/>
	<g>
		<path style="fill:none;stroke:#072F35;stroke-linecap:round;stroke-linejoin:round;stroke-miterlimit:10;" d="M20.7,14.7L13,21.8
			v8.5H29v-8.5l-7.8-7.1C21.1,14.5,20.9,14.5,20.7,14.7z"/>
		<path style="fill:none;stroke:#072F35;stroke-linecap:round;stroke-linejoin:round;stroke-miterlimit:10;" d="M31.1,21.4l-3.3-3.2
			v-5h-3.2v1.9l-3.3-3.2c-0.2-0.1-0.4-0.1-0.6,0l-9.9,9.5c-0.2,0.2-0.2,0.4,0,0.6l0.6,0.6c0.2,0.2,0.4,0.2,0.6,0l8.7-7.9
			c0.2-0.1,0.4-0.1,0.5,0l8.7,7.9c0.2,0.1,0.4,0.1,0.6,0l0.6-0.6C31.3,21.8,31.3,21.5,31.1,21.4z"/>
		<path style="fill:none;stroke:#072F35;stroke-linecap:round;stroke-linejoin:round;stroke-miterlimit:10;" d="M23,30.2v-4.4
			c0-1.1-0.9-2-2-2l0,0c-1.1,0-2,0.9-2,2v4.4H23z"/>
	</g>
</g>
</svg>
