<?xml version="1.0" encoding="utf-8"?>
<!-- Generator: Adobe Illustrator 26.0.0, SVG Export Plug-In . SVG Version: 6.00 Build 0)  -->
<svg version="1.1" baseProfile="tiny" id="Layer_1" xmlns="http://www.w3.org/2000/svg" xmlns:xlink="http://www.w3.org/1999/xlink"
	 x="0px" y="0px" viewBox="0 0 42 42" overflow="visible" xml:space="preserve">
<g>
	<circle fill="#072F35" cx="21" cy="21" r="20.6"/>
	<g>
		<g>
			<path fill="none" stroke="#45E6DD" stroke-linecap="round" stroke-linejoin="round" stroke-miterlimit="10" d="M20.2,24.9
				c0-1.7-1.4-3.1-3.1-3.1c-1.7,0-3.1,1.4-3.1,3.1c0,1.7,1.4,3.1,3.1,3.1C18.8,28,20.2,26.6,20.2,24.9z"/>
			<path fill="none" stroke="#45E6DD" stroke-linecap="round" stroke-linejoin="round" stroke-miterlimit="10" d="M23,23.4L23,23.4
				l1.8,0.3c0.1,0.4,0.1,0.8,0.1,1.3c0,0.4,0,0.9-0.1,1.3L23,26.4l0,0c-0.1,0.6-0.4,1.1-0.6,1.6l1.1,1.4c-0.5,0.7-1.1,1.3-1.8,1.8
				l-1.4-1.1c0,0,0,0,0,0c-0.5,0.3-1,0.5-1.6,0.6l0,0l-0.3,1.8c-0.4,0.1-0.8,0.1-1.3,0.1c-0.4,0-0.9,0-1.3-0.1l-0.3-1.8c0,0,0,0,0,0
				c-0.6-0.1-1.1-0.4-1.6-0.6l0,0l-1.4,1.1c-0.7-0.5-1.3-1.1-1.8-1.8l1.1-1.4c-0.3-0.5-0.5-1-0.6-1.6l0,0l-1.8-0.3
				c-0.1-0.4-0.1-0.8-0.1-1.3c0-0.4,0-0.9,0.1-1.3l1.8-0.3l0,0c0.1-0.6,0.4-1.1,0.6-1.6l-1.1-1.4c0.5-0.7,1.1-1.3,1.8-1.8l1.4,1.1
				c0.5-0.3,1-0.5,1.6-0.6c0,0,0,0,0,0l0.3-1.8c0.4-0.1,0.8-0.1,1.3-0.1c0.4,0,0.9,0,1.3,0.1l0.3,1.8l0,0c0.6,0.1,1.1,0.4,1.6,0.6
				l1.4-1.1c0.7,0.5,1.3,1.1,1.8,1.8l-1.1,1.4C22.6,22.3,22.9,22.8,23,23.4z"/>
		</g>
		<g>
			<path fill="none" stroke="#45E6DD" stroke-linecap="round" stroke-linejoin="round" stroke-miterlimit="10" d="M31.7,13.6
				c0.1,0.3,0.1,0.6,0.1,0.9c0,0.3,0,0.6-0.1,0.9c0,0,0,0,0,0l1.1,0.8c-0.2,0.6-0.6,1.2-1,1.7l-1.2-0.5c-0.4,0.4-0.9,0.7-1.5,0.9h0
				l-0.2,1.3c-0.3,0.1-0.7,0.1-1,0.1c-0.3,0-0.7,0-1-0.1l-0.2-1.3h0c-0.6-0.2-1.1-0.5-1.5-0.9l-1.2,0.5c-0.4-0.5-0.8-1.1-1-1.7
				l1.1-0.8c0,0,0,0,0,0c-0.1-0.3-0.1-0.6-0.1-0.9c0-0.3,0-0.6,0.1-0.9l0,0l-1.1-0.8c0.2-0.6,0.6-1.2,1-1.7l1.2,0.5l0,0
				c0.4-0.4,0.9-0.7,1.5-0.9h0l0.2-1.3c0.3-0.1,0.7-0.1,1-0.1c0.3,0,0.7,0,1,0.1l0.2,1.3h0c0.6,0.2,1.1,0.5,1.5,0.9l0,0l1.2-0.5
				c0.4,0.5,0.8,1.1,1,1.7L31.7,13.6L31.7,13.6z"/>
			<path fill="none" stroke="#45E6DD" stroke-linecap="round" stroke-linejoin="round" stroke-miterlimit="10" d="M29.8,14.5
				c0-1.1-0.9-2-2-2c-1.1,0-2,0.9-2,2c0,1.1,0.9,2,2,2C28.9,16.5,29.8,15.6,29.8,14.5z"/>
		</g>
	</g>
</g>
</svg>
