<?xml version="1.0" encoding="utf-8"?>
<!-- Generator: Adobe Illustrator 26.0.0, SVG Export Plug-In . SVG Version: 6.00 Build 0)  -->
<svg version="1.1" baseProfile="tiny" id="Layer_1" xmlns="http://www.w3.org/2000/svg" xmlns:xlink="http://www.w3.org/1999/xlink"
	 x="0px" y="0px" viewBox="0 0 42 42" overflow="visible" xml:space="preserve">
<g>
	<circle fill="#072F35" cx="21" cy="21" r="20.6"/>
	<g>
		<path fill="none" stroke="#45E6DD" stroke-linecap="round" stroke-linejoin="round" stroke-miterlimit="10" d="M11.2,26.2
			c-1,0-1.9-0.8-1.9-1.9v3.8c0,0.5,0.4,0.9,0.9,0.9h1.9c0.5,0,0.9-0.4,0.9-0.9v-1.9H11.2z"/>
		<path fill="none" stroke="#45E6DD" stroke-linecap="round" stroke-linejoin="round" stroke-miterlimit="10" d="M30,26.2h-1.9v1.9
			c0,0.5,0.4,0.9,0.9,0.9H31c0.5,0,0.9-0.4,0.9-0.9v-3.8C31.9,25.4,31.1,26.2,30,26.2z"/>
		<path fill="none" stroke="#45E6DD" stroke-linecap="round" stroke-linejoin="round" stroke-miterlimit="10" d="M27.9,12.9
			c-0.4-1-1.5-1.7-2.6-1.7h-9.5c-1.1,0-2.2,0.7-2.6,1.7l-1.6,4.9h17.9L27.9,12.9z"/>
		<path fill="none" stroke="#45E6DD" stroke-linecap="round" stroke-linejoin="round" stroke-miterlimit="10" d="M29.1,17.8H12.1
			c-1.6,0-2.8,1.3-2.8,2.8v3.8c0,1,0.8,1.9,1.9,1.9H30c1,0,1.9-0.8,1.9-1.9v-3.8C31.9,19,30.6,17.8,29.1,17.8z"/>
		<g>
			<path fill="none" stroke="#45E6DD" stroke-linecap="round" stroke-linejoin="round" stroke-miterlimit="10" d="M29.1,20.6h-0.9
				c-1,0-1.9,0.8-1.9,1.9c0,0.5,0.4,0.9,0.9,0.9h1.9c0.5,0,0.9-0.4,0.9-0.9v-0.9C30,21,29.6,20.6,29.1,20.6z"/>
			<path fill="none" stroke="#45E6DD" stroke-linecap="round" stroke-linejoin="round" stroke-miterlimit="10" d="M13.1,20.6h-0.9
				c-0.5,0-0.9,0.4-0.9,0.9v0.9c0,0.5,0.4,0.9,0.9,0.9H14c0.5,0,0.9-0.4,0.9-0.9C15,21.4,14.1,20.6,13.1,20.6z"/>
		</g>
		<path fill="none" stroke="#45E6DD" stroke-linecap="round" stroke-linejoin="round" stroke-miterlimit="10" d="M22,20.6h-2.8
			c-1,0-1.9,0.8-1.9,1.9v0.9h6.6v-0.9C23.9,21.4,23.1,20.6,22,20.6z"/>
		<path fill="none" stroke="#45E6DD" stroke-linecap="round" stroke-linejoin="round" stroke-miterlimit="10" d="M33.2,15.4h-1.6
			c-0.4,0-0.8,0.4-0.8,0.8V17c0,0.4,0.4,0.8,0.8,0.8h0.8c0.9,0,1.6-0.7,1.6-1.6C33.9,15.8,33.6,15.4,33.2,15.4z"/>
		<path fill="none" stroke="#45E6DD" stroke-linecap="round" stroke-linejoin="round" stroke-miterlimit="10" d="M31.3,17.7h-1.8v0
			h2v0C31.5,17.8,31.4,17.7,31.3,17.7z"/>
		<path fill="none" stroke="#45E6DD" stroke-linecap="round" stroke-linejoin="round" stroke-miterlimit="10" d="M9.6,15.4H8.1
			c-0.4,0-0.8,0.4-0.8,0.8c0,0.9,0.7,1.6,1.6,1.6h0.8c0.4,0,0.8-0.4,0.8-0.8v-0.8C10.4,15.8,10.1,15.4,9.6,15.4z"/>
		<path fill="none" stroke="#45E6DD" stroke-linecap="round" stroke-linejoin="round" stroke-miterlimit="10" d="M9.9,17.7
			c-0.1,0-0.2,0-0.3,0v0h2v0H9.9z"/>
	</g>
</g>
</svg>
